# xmcd CD database file
#
# Track frame offsets:
#	150
#	17457
#	32457
#	48725
#	67146
#	84932
#	95170
#	108712
#	126903
#	141293
#	155233
#	173730
#	187726
#	202652
#	220513
#	239614
#	250388
#
# Disc length: 3682 seconds
#
# Revision: 0
# Processed by: cddbd v1.5.2PL0 Copyright (c) Steve Scherf et al.
# Submitted via: jetAudio 7
#
DISCID=ee0e6011
DTITLE=Marcos Aurelio and Rodolfo - Marcos Aurelio and Rodolfo
DYEAR=1900
DGENRE=Country
TTITLE0=Eres Mi Destino
TTITLE1=Apaixonado Por Voçe
TTITLE2=Telefone Mudo
TTITLE3=Pagina de Amigo
TTITLE4=Tu Silencio
TTITLE5=Opama Ñemochichi
TTITLE6=Durmi Na Praça
TTITLE7=Não Vou Te Esquecer
TTITLE8=Sonrisa Fingida
TTITLE9=Ta Que Ta
TTITLE10=Porque Vuelves Aqui
TTITLE11=A Carta
TTITLE12=Do Outro LAdo Da Cidade
TTITLE13=Risca Faca
TTITLE14=Triste Amanecer
TTITLE15=Ype Hu Poty
TTITLE16=Te Amo Mamãe
EXTD=
EXTT0=
EXTT1=
EXTT2=
EXTT3=
EXTT4=
EXTT5=
EXTT6=
EXTT7=
EXTT8=
EXTT9=
EXTT10=
EXTT11=
EXTT12=
EXTT13=
EXTT14=
EXTT15=
EXTT16=
PLAYORDER=
